# xmcd
#
# Track frame offsets: 
#        150
#        18552
#        37722
#        55421
#        71135
#        88914
#        104677
#        122248
#        140203
#        160670
#        181153
#        195284
#        211974
#        229496
#        244154
#        262221
#        281648
#        306915
#        323334
#        337016
#
# Disc length: 4705 seconds
#
# Revision: 0
# Processed by: cddbd v1.5.2PL0 Copyright (c) Steve Scherf et al.
# Submitted via: ExactAudioCopy v0.95a5
#
DISCID=31125f14
DTITLE=Signal - The best of
DYEAR=1994
DGENRE=Blues
TTITLE0=Slap den
TTITLE1=Skup spomen moi
TTITLE2=W drugo wriemia w drug s wam
TTITLE3=Da te zadywam
TTITLE4=Radio
TTITLE5=Cpri se
TTITLE6=Kaskadory
TTITLE7=Tzen kloun
TTITLE8=Miezdu od i paj
TTITLE9=Liubow
TTITLE10=Moze by
TTITLE11=Mina i Lora
TTITLE12=Do utrie
TTITLE13=Mze
TTITLE14=Cbogom
TTITLE15=Hatinsite kombani
TTITLE16=Szatliwiec
TTITLE17=Lincwasz mi
TTITLE18=Zeleny signal
TTITLE19=1001 noszcz
EXTD=
EXTT0=
EXTT1=
EXTT2=
EXTT3=
EXTT4=
EXTT5=
EXTT6=
EXTT7=
EXTT8=
EXTT9=
EXTT10=
EXTT11=
EXTT12=
EXTT13=
EXTT14=
EXTT15=
EXTT16=
EXTT17=
EXTT18=
EXTT19=
PLAYORDER=
